<mxfile host="65bd71144e">
    <diagram id="tWHRz3rqCA3Z7lW31VuY" name="Page-1">
        <mxGraphModel dx="759" dy="587" grid="1" gridSize="10" guides="1" tooltips="1" connect="1" arrows="1" fold="1" page="1" pageScale="1" pageWidth="850" pageHeight="1100" math="0" shadow="0">
            <root>
                <mxCell id="0"/>
                <mxCell id="1" parent="0"/>
                <mxCell id="2" value="config" style="whiteSpace=wrap;html=1;aspect=fixed;" vertex="1" parent="1">
                    <mxGeometry x="40" y="170" width="70" height="70" as="geometry"/>
                </mxCell>
                <mxCell id="3" value="model" style="whiteSpace=wrap;html=1;" vertex="1" parent="1">
                    <mxGeometry x="40" y="350" width="70" height="70" as="geometry"/>
                </mxCell>
                <mxCell id="4" value="post processing&lt;div&gt;embedded application&lt;/div&gt;" style="whiteSpace=wrap;html=1;aspect=fixed;" vertex="1" parent="1">
                    <mxGeometry x="40" y="530" width="70" height="70" as="geometry"/>
                </mxCell>
                <mxCell id="5" value="data loader" style="whiteSpace=wrap;html=1;aspect=fixed;" vertex="1" parent="1">
                    <mxGeometry x="40" y="260" width="70" height="70" as="geometry"/>
                </mxCell>
                <mxCell id="6" value="train" style="whiteSpace=wrap;html=1;imageAspect=1;" vertex="1" parent="1">
                    <mxGeometry x="161" y="170" width="70" height="70" as="geometry"/>
                </mxCell>
                <mxCell id="7" value="data loader for train dataset" style="whiteSpace=wrap;html=1;aspect=fixed;" vertex="1" parent="1">
                    <mxGeometry x="161" y="260" width="70" height="70" as="geometry"/>
                </mxCell>
                <mxCell id="8" value="model" style="whiteSpace=wrap;html=1;imageAspect=1;" vertex="1" parent="1">
                    <mxGeometry x="161" y="350" width="70" height="33" as="geometry"/>
                </mxCell>
                <mxCell id="9" style="edgeStyle=orthogonalEdgeStyle;rounded=0;orthogonalLoop=1;jettySize=auto;html=1;entryX=1;entryY=0.5;entryDx=0;entryDy=0;" edge="1" parent="1" source="10" target="8">
                    <mxGeometry relative="1" as="geometry">
                        <mxPoint x="241" y="370" as="targetPoint"/>
                        <Array as="points">
                            <mxPoint x="251" y="404"/>
                            <mxPoint x="251" y="367"/>
                            <mxPoint x="241" y="367"/>
                        </Array>
                    </mxGeometry>
                </mxCell>
                <mxCell id="10" value="loss" style="whiteSpace=wrap;html=1;imageAspect=1;" vertex="1" parent="1">
                    <mxGeometry x="161" y="387" width="70" height="33" as="geometry"/>
                </mxCell>
                <mxCell id="11" style="edgeStyle=orthogonalEdgeStyle;rounded=0;orthogonalLoop=1;jettySize=auto;html=1;entryX=1;entryY=0.5;entryDx=0;entryDy=0;exitX=1;exitY=0.5;exitDx=0;exitDy=0;" edge="1" parent="1" source="12" target="8">
                    <mxGeometry relative="1" as="geometry">
                        <mxPoint x="251" y="370" as="targetPoint"/>
                    </mxGeometry>
                </mxCell>
                <mxCell id="12" value="evaluation for epoch" style="whiteSpace=wrap;html=1;imageAspect=1;" vertex="1" parent="1">
                    <mxGeometry x="161" y="440" width="70" height="70" as="geometry"/>
                </mxCell>
                <mxCell id="13" value="evaluation" style="whiteSpace=wrap;html=1;" vertex="1" parent="1">
                    <mxGeometry x="40" y="439" width="70" height="70" as="geometry"/>
                </mxCell>
                <mxCell id="14" value="test" style="whiteSpace=wrap;html=1;imageAspect=1;" vertex="1" parent="1">
                    <mxGeometry x="280" y="170" width="70" height="70" as="geometry"/>
                </mxCell>
                <mxCell id="15" value="data loader for test dataset" style="whiteSpace=wrap;html=1;aspect=fixed;" vertex="1" parent="1">
                    <mxGeometry x="280" y="260" width="70" height="70" as="geometry"/>
                </mxCell>
                <mxCell id="16" value="model" style="whiteSpace=wrap;html=1;imageAspect=1;" vertex="1" parent="1">
                    <mxGeometry x="280" y="350" width="70" height="33" as="geometry"/>
                </mxCell>
                <mxCell id="17" value="evaluation" style="whiteSpace=wrap;html=1;imageAspect=1;" vertex="1" parent="1">
                    <mxGeometry x="280" y="440" width="70" height="70" as="geometry"/>
                </mxCell>
                <mxCell id="18" value="deploy" style="whiteSpace=wrap;html=1;imageAspect=1;" vertex="1" parent="1">
                    <mxGeometry x="390" y="170" width="70" height="70" as="geometry"/>
                </mxCell>
                <mxCell id="19" value="model" style="whiteSpace=wrap;html=1;imageAspect=1;" vertex="1" parent="1">
                    <mxGeometry x="390" y="350" width="70" height="33" as="geometry"/>
                </mxCell>
                <mxCell id="20" value="post processing" style="whiteSpace=wrap;html=1;aspect=fixed;" vertex="1" parent="1">
                    <mxGeometry x="390" y="529" width="70" height="70" as="geometry"/>
                </mxCell>
            </root>
        </mxGraphModel>
    </diagram>
</mxfile>